<mxfile host="65bd71144e">
    <diagram id="58XMA-p-C20267B4mfxz" name="PÃ¡gina-1">
        <mxGraphModel dx="902" dy="461" grid="1" gridSize="10" guides="1" tooltips="1" connect="1" arrows="1" fold="1" page="1" pageScale="1" pageWidth="850" pageHeight="1100" math="0" shadow="0">
            <root>
                <mxCell id="0"/>
                <mxCell id="1" parent="0"/>
                <mxCell id="4" value="" style="edgeStyle=none;html=1;" parent="1" source="2" target="3" edge="1">
                    <mxGeometry relative="1" as="geometry"/>
                </mxCell>
                <mxCell id="2" value="INICIO" style="ellipse;whiteSpace=wrap;html=1;fillColor=#66FF66;" parent="1" vertex="1">
                    <mxGeometry x="220" y="10" width="70" height="40" as="geometry"/>
                </mxCell>
                <mxCell id="3" value="a, b, c" style="shape=parallelogram;perimeter=parallelogramPerimeter;whiteSpace=wrap;html=1;fixedSize=1;fillColor=#00CCCC;" parent="1" vertex="1">
                    <mxGeometry x="212.5" y="80" width="85" height="30" as="geometry"/>
                </mxCell>
                <mxCell id="5" value="" style="endArrow=classic;html=1;" parent="1" edge="1">
                    <mxGeometry width="50" height="50" relative="1" as="geometry">
                        <mxPoint x="254.5" y="110" as="sourcePoint"/>
                        <mxPoint x="255" y="160" as="targetPoint"/>
                    </mxGeometry>
                </mxCell>
                <mxCell id="11" value="a+b&amp;gt;c" style="rhombus;whiteSpace=wrap;html=1;fillColor=#1ba1e2;fontColor=#ffffff;strokeColor=#006EAF;" parent="1" vertex="1">
                    <mxGeometry x="215" y="160" width="80" height="80" as="geometry"/>
                </mxCell>
                <mxCell id="13" value="a+c&amp;gt;b" style="rhombus;whiteSpace=wrap;html=1;fillColor=#66B2FF;" parent="1" vertex="1">
                    <mxGeometry x="360" y="240" width="80" height="80" as="geometry"/>
                </mxCell>
                <mxCell id="17" value="" style="endArrow=classic;html=1;exitX=0;exitY=0.5;exitDx=0;exitDy=0;" parent="1" target="23" edge="1">
                    <mxGeometry width="50" height="50" relative="1" as="geometry">
                        <mxPoint x="360" y="280" as="sourcePoint"/>
                        <mxPoint x="280" y="320" as="targetPoint"/>
                        <Array as="points">
                            <mxPoint x="280" y="280"/>
                        </Array>
                    </mxGeometry>
                </mxCell>
                <mxCell id="20" value="" style="endArrow=classic;html=1;" parent="1" edge="1">
                    <mxGeometry width="50" height="50" relative="1" as="geometry">
                        <mxPoint x="297.5" y="200" as="sourcePoint"/>
                        <mxPoint x="400" y="240" as="targetPoint"/>
                        <Array as="points">
                            <mxPoint x="400" y="200"/>
                        </Array>
                    </mxGeometry>
                </mxCell>
                <mxCell id="21" value="" style="endArrow=classic;html=1;" parent="1" edge="1">
                    <mxGeometry width="50" height="50" relative="1" as="geometry">
                        <mxPoint x="440" y="280" as="sourcePoint"/>
                        <mxPoint x="520" y="320" as="targetPoint"/>
                        <Array as="points">
                            <mxPoint x="520" y="280"/>
                        </Array>
                    </mxGeometry>
                </mxCell>
                <mxCell id="22" value="b+c&amp;gt;a" style="rhombus;whiteSpace=wrap;html=1;fillColor=#66B2FF;" parent="1" vertex="1">
                    <mxGeometry x="480" y="320" width="80" height="80" as="geometry"/>
                </mxCell>
                <mxCell id="23" value="no es un triangulo" style="shape=document;whiteSpace=wrap;html=1;boundedLbl=1;fillColor=#66FF66;" parent="1" vertex="1">
                    <mxGeometry x="230" y="320" width="110" height="70" as="geometry"/>
                </mxCell>
                <mxCell id="24" value="" style="endArrow=classic;html=1;" parent="1" edge="1">
                    <mxGeometry width="50" height="50" relative="1" as="geometry">
                        <mxPoint x="560" y="360" as="sourcePoint"/>
                        <mxPoint x="640" y="400" as="targetPoint"/>
                        <Array as="points">
                            <mxPoint x="640" y="360"/>
                        </Array>
                    </mxGeometry>
                </mxCell>
                <mxCell id="25" value="si es un triangulo" style="shape=document;whiteSpace=wrap;html=1;boundedLbl=1;fillColor=#66FF66;" parent="1" vertex="1">
                    <mxGeometry x="600" y="400" width="110" height="70" as="geometry"/>
                </mxCell>
                <mxCell id="26" value="" style="endArrow=classic;html=1;exitX=0;exitY=0.5;exitDx=0;exitDy=0;" parent="1" edge="1">
                    <mxGeometry width="50" height="50" relative="1" as="geometry">
                        <mxPoint x="480" y="360" as="sourcePoint"/>
                        <mxPoint x="400" y="400" as="targetPoint"/>
                        <Array as="points">
                            <mxPoint x="400" y="360"/>
                        </Array>
                    </mxGeometry>
                </mxCell>
                <mxCell id="27" value="no es un triangulo" style="shape=document;whiteSpace=wrap;html=1;boundedLbl=1;fillColor=#66FF66;" parent="1" vertex="1">
                    <mxGeometry x="350" y="400" width="110" height="70" as="geometry"/>
                </mxCell>
                <mxCell id="28" value="" style="endArrow=classic;html=1;exitX=0;exitY=0.5;exitDx=0;exitDy=0;" parent="1" edge="1">
                    <mxGeometry width="50" height="50" relative="1" as="geometry">
                        <mxPoint x="220" y="200" as="sourcePoint"/>
                        <mxPoint x="140" y="240" as="targetPoint"/>
                        <Array as="points">
                            <mxPoint x="140" y="200"/>
                        </Array>
                    </mxGeometry>
                </mxCell>
                <mxCell id="29" value="no es un triangulo" style="shape=document;whiteSpace=wrap;html=1;boundedLbl=1;fillColor=#66FF66;" parent="1" vertex="1">
                    <mxGeometry x="102.5" y="240" width="110" height="70" as="geometry"/>
                </mxCell>
                <mxCell id="30" value="" style="endArrow=classic;html=1;" parent="1" edge="1">
                    <mxGeometry width="50" height="50" relative="1" as="geometry">
                        <mxPoint x="140" y="310" as="sourcePoint"/>
                        <mxPoint x="640" y="520" as="targetPoint"/>
                        <Array as="points">
                            <mxPoint x="140" y="520"/>
                        </Array>
                    </mxGeometry>
                </mxCell>
                <mxCell id="31" value="" style="endArrow=classic;html=1;" parent="1" edge="1">
                    <mxGeometry width="50" height="50" relative="1" as="geometry">
                        <mxPoint x="280" y="380" as="sourcePoint"/>
                        <mxPoint x="280" y="520" as="targetPoint"/>
                    </mxGeometry>
                </mxCell>
                <mxCell id="32" value="" style="endArrow=classic;html=1;" parent="1" edge="1">
                    <mxGeometry width="50" height="50" relative="1" as="geometry">
                        <mxPoint x="399.5" y="460" as="sourcePoint"/>
                        <mxPoint x="400" y="520" as="targetPoint"/>
                    </mxGeometry>
                </mxCell>
                <mxCell id="33" value="" style="endArrow=classic;html=1;" parent="1" edge="1">
                    <mxGeometry width="50" height="50" relative="1" as="geometry">
                        <mxPoint x="640" y="470" as="sourcePoint"/>
                        <mxPoint x="641" y="520" as="targetPoint"/>
                    </mxGeometry>
                </mxCell>
                <mxCell id="34" value="" style="endArrow=classic;html=1;" parent="1" target="35" edge="1">
                    <mxGeometry width="50" height="50" relative="1" as="geometry">
                        <mxPoint x="400" y="520" as="sourcePoint"/>
                        <mxPoint x="400" y="600" as="targetPoint"/>
                    </mxGeometry>
                </mxCell>
                <mxCell id="35" value="fin" style="ellipse;whiteSpace=wrap;html=1;fillColor=#1ba1e2;fontColor=#ffffff;strokeColor=#006EAF;" parent="1" vertex="1">
                    <mxGeometry x="340" y="600" width="120" height="80" as="geometry"/>
                </mxCell>
            </root>
        </mxGraphModel>
    </diagram>
</mxfile>